<svg xmlns="http://www.w3.org/2000/svg" viewBox="0 0 100 100">
  <defs>
    <linearGradient id="grad1" x1="0%" y1="0%" x2="100%" y2="100%">
      <stop offset="0%" style="stop-color:#8B5CF6;stop-opacity:1" />
      <stop offset="50%" style="stop-color:#D946EF;stop-opacity:1" />
      <stop offset="100%" style="stop-color:#0EA5E9;stop-opacity:1" />
    </linearGradient>
  </defs>
  
  <!-- Background circle -->
  <circle cx="50" cy="50" r="48" fill="url(#grad1)"/>
  
  <!-- Calendar icon -->
  <rect x="25" y="30" width="50" height="45" rx="5" fill="white" stroke="none"/>
  
  <!-- Calendar header -->
  <rect x="25" y="30" width="50" height="12" rx="5" fill="#8B5CF6" stroke="none"/>
  <rect x="25" y="37" width="50" height="5" fill="#8B5CF6" stroke="none"/>
  
  <!-- Calendar rings/holders -->
  <rect x="33" y="25" width="4" height="10" rx="2" fill="white"/>
  <rect x="63" y="25" width="4" height="10" rx="2" fill="white"/>
  
  <!-- Calendar dots (dates) -->
  <circle cx="35" cy="52" r="3" fill="#8B5CF6"/>
  <circle cx="50" cy="52" r="3" fill="#8B5CF6"/>
  <circle cx="65" cy="52" r="3" fill="#8B5CF6"/>
  
  <circle cx="35" cy="62" r="3" fill="#D946EF"/>
  <circle cx="50" cy="62" r="3" fill="#D946EF"/>
  <circle cx="65" cy="62" r="3" fill="#D946EF"/>
  
  <!-- Sparkle/Star accent -->
  <path d="M 70 22 L 72 27 L 77 29 L 72 31 L 70 36 L 68 31 L 63 29 L 68 27 Z" fill="#FCD34D" opacity="0.9"/>
</svg>
